PathFileType	4	(X/Y/Z)	TVC_58_BWA_05_walk_RCNL2025.trc
DataRate	CameraRate	NumFrames	NumMarkers	Units	OrigDataRate	OrigDataStartFrame	OrigNumFrames
100	100	9	27	mm	100	229	366
Frame#	Time	R_Shoulder			L_Shoulder			C7			J_Notch			R_Elbow			L_Elbow			R_Wrist			L_Wrist			R_Asis			L_Asis			R_Psis			L_Psis			Sacral			Thoracic			Sternum			R_Thigh_Lateral			R_Knee_Lateral			R_Shank_Lateral			R_Ankle_Lateral			R_Heel			R_Toe			L_Thigh_Lateral			L_Knee_Lateral			L_Shank_Lateral			L_Ankle_Lateral			L_Heel			L_Toe		
		X1	Y1	Z1	X2	Y2	Z2	X3	Y3	Z3	X4	Y4	Z4	X5	Y5	Z5	X6	Y6	Z6	X7	Y7	Z7	X8	Y8	Z8	X9	Y9	Z9	X10	Y10	Z10	X11	Y11	Z11	X12	Y12	Z12	X13	Y13	Z13	X14	Y14	Z14	X15	Y15	Z15	X16	Y16	Z16	X17	Y17	Z17	X18	Y18	Z18	X19	Y19	Z19	X20	Y20	Z20	X21	Y21	Z21	X22	Y22	Z22	X23	Y23	Z23	X24	Y24	Z24	X25	Y25	Z25	X26	Y26	Z26	X27	Y27	Z27
229	2.28000000	-120.905525	1327.657471	458.285889	-119.128647	1363.615356	102.486595	-181.145859	1416.988037	277.830566	-36.484768	1317.707642	279.305145	-123.903236	1006.280090	516.437195	-185.659210	1047.151733	23.285357	-4.411774	787.048065	546.246674	-91.766451	824.083984	-50.921732	-8.304837	911.247070	399.149292	-16.684269	908.028809	88.884750	-240.643997	944.813721	309.212311	-244.073105	932.275635	199.009766	-242.358551	938.544678	254.111038	-235.262360	1111.230103	257.291351	66.133789	1085.522461	248.298981	-35.006111	699.073730	481.868469	-31.183746	465.931366	395.421783	-66.306763	260.055817	429.351501	-109.609390	65.841919	322.779541	-163.989075	61.398499	269.733398	16.886477	46.528294	287.665741	-49.482895	666.929565	8.249718	60.975288	475.203766	86.655098	-58.023422	319.002014	45.067928	-207.791092	158.955856	148.960388	-240.407852	174.579849	207.278381	-100.392517	72.581497	150.078720
230	2.29000000	-113.146774	1327.618774	459.090942	-112.139374	1364.001099	103.405281	-173.723465	1417.302246	278.957703	-29.237570	1317.559814	279.988861	-111.924255	1006.521729	517.675903	-180.153091	1047.808350	24.156670	9.899478	788.602692	546.676941	-86.067711	824.937775	-50.918919	-2.708681	911.428406	400.368134	-10.065013	908.825684	89.536514	-234.633911	944.830383	308.898346	-237.557922	932.614319	198.828171	-236.095917	938.722351	253.863258	-228.671555	1111.712280	258.011780	72.472832	1085.540894	248.854507	-29.351643	698.355774	481.540710	-28.519714	465.472900	395.062408	-64.787697	259.828278	429.119476	-109.463188	65.939690	322.631317	-163.880508	61.604595	269.633148	16.879393	46.444752	287.515167	-40.348083	667.843567	8.732379	72.569054	477.700226	87.638733	-39.600296	316.826080	45.964642	-183.108856	150.752914	149.134277	-216.963562	165.200577	207.075455	-71.671333	69.817665	151.522308
231	2.30000000	-105.456314	1327.554688	459.835724	-105.178001	1364.330933	104.268295	-166.341400	1417.549805	280.015564	-22.036230	1317.362671	280.627106	-100.029228	1006.780640	518.775330	-174.629211	1048.420654	24.977222	24.006077	790.142639	546.955627	-80.412802	825.699005	-50.909960	2.895790	911.603210	401.583588	-3.426871	909.600159	90.195763	-228.572983	944.817261	308.604462	-231.055557	932.898804	198.659897	-229.814270	938.858032	253.632179	-222.094025	1112.119385	258.674683	78.777168	1085.556885	249.453339	-24.136728	697.586609	481.325775	-25.757029	465.002502	394.607330	-62.951790	259.581451	428.771332	-109.308395	66.041420	322.477722	-163.770599	61.803181	269.529236	16.880386	46.353951	287.340912	-31.449608	668.674255	9.224880	83.545334	480.003204	88.727661	-20.902103	314.064117	47.095787	-157.821075	142.328003	149.252975	-192.830887	155.477097	206.836197	-42.558334	67.039574	152.809860
232	2.31000000	-97.831413	1327.463135	460.521332	-98.240677	1364.597656	105.075203	-158.998322	1417.727417	281.003174	-14.877223	1317.118042	281.221283	-88.252716	1007.049255	519.736755	-169.068741	1048.979248	25.737709	37.899977	791.665802	547.079529	-74.802118	826.356110	-50.894936	8.550878	911.737610	402.753601	3.237802	910.322571	90.841576	-222.446762	944.791687	308.349731	-224.563919	933.127808	198.519455	-223.505341	938.959747	253.434593	-215.520599	1112.447388	259.279663	85.069855	1085.553101	250.083511	-19.290512	696.790222	481.218689	-22.938011	464.524994	394.092407	-60.889954	259.336670	428.331421	-109.145889	66.145546	322.321747	-163.659882	61.992485	269.423767	16.893724	46.259521	287.144409	-22.808779	669.387207	9.732846	93.915985	482.074615	89.920906	-1.992454	310.927307	48.409523	-131.981445	133.857681	149.311142	-168.043243	145.581238	206.562851	-13.132637	64.373817	153.936646
233	2.32000000	-90.269363	1327.340210	461.149078	-91.323166	1364.793091	105.825630	-151.692673	1417.831177	281.919678	-7.756594	1316.826416	281.772797	-76.626831	1007.317688	520.563660	-163.455246	1049.473267	26.430298	51.574534	793.168884	547.046875	-69.235203	826.897461	-50.874157	14.295494	911.800537	403.838318	9.935300	910.964233	91.452637	-216.243942	944.766418	308.147217	-218.078537	933.298523	198.415649	-217.161240	939.032471	253.281433	-208.942444	1112.692139	259.825623	91.372391	1085.512695	250.730042	-14.720741	695.989868	481.200287	-20.115181	464.045258	393.557434	-58.714584	259.116058	427.830444	-108.978317	66.250847	322.166534	-163.546860	62.170414	269.317810	16.921642	46.165089	286.928101	-14.439138	669.948486	10.258801	103.702202	483.881439	91.215485	16.988958	307.724762	49.804176	-105.660202	125.512878	149.301056	-142.658508	135.687866	206.251556	16.509197	61.939281	154.909576
234	2.33000000	-82.767578	1327.180908	461.720520	-84.420975	1364.909546	106.519211	-144.422577	1417.857178	282.764587	-0.669993	1316.487671	282.282837	-65.180527	1007.574402	521.261353	-157.774979	1049.891846	27.049126	65.024403	794.647308	546.857544	-63.710979	827.312042	-50.848070	20.163202	911.766479	404.802734	16.670315	911.499084	92.008163	-209.956329	944.748840	308.003510	-211.592621	933.406494	198.351593	-210.774475	939.077667	253.177551	-202.351196	1112.849243	260.310822	97.703789	1085.420166	251.376282	-10.325284	695.210083	481.242523	-17.344501	463.568176	393.043732	-56.559662	258.938416	427.309692	-108.809853	66.356468	322.015747	-163.428970	62.335945	269.212280	16.963295	46.073429	286.695923	-6.345040	670.328674	10.800496	112.934059	485.397461	92.605217	35.845234	304.791199	51.150433	-78.944595	117.455238	149.215378	-116.758606	125.969383	205.895920	46.253193	59.848469	155.736450
235	2.34000000	-75.323639	1326.979370	462.237396	-77.529404	1364.939575	107.155640	-137.185822	1417.801025	283.537598	6.387291	1316.100098	282.752411	-53.938992	1007.806458	521.836975	-152.016968	1050.224243	27.590590	78.245399	796.095306	546.512909	-58.227979	827.589813	-50.817186	26.180731	911.617065	405.618805	23.445822	911.904724	92.488762	-203.578674	944.740295	307.918732	-205.097519	933.445679	198.325256	-204.338097	939.092987	253.121994	-195.739029	1112.914673	260.733002	104.079994	1085.262573	252.005585	-6.002414	694.476135	481.314087	-14.677019	463.098541	392.590759	-54.574142	258.816101	426.823090	-108.645531	66.461716	321.873535	-163.304901	62.490929	269.108307	17.014709	45.986172	286.453125	1.478304	670.506592	11.349669	121.649780	486.605133	94.079788	54.363049	302.399689	52.328232	-51.938358	109.833351	149.049454	-90.446854	116.590027	205.489838	75.971642	58.208191	156.419479
236	2.35000000	-67.935211	1326.728516	462.701569	-70.643631	1364.876709	107.734550	-129.979706	1417.658447	284.238556	13.420300	1315.661743	283.182068	-42.923168	1007.999817	522.298645	-146.173050	1050.460571	28.053457	91.234447	797.505951	546.016052	-52.784529	827.722229	-50.782078	32.367023	911.342285	406.266571	30.262987	912.163391	92.877388	-197.108643	944.736328	307.886902	-198.583282	933.408875	198.330078	-197.845963	939.072601	253.108490	-189.098801	1112.884521	261.089569	110.513695	1085.029785	252.602493	-1.660977	693.809814	481.385681	-12.150730	462.640503	392.232178	-52.905502	258.752991	426.431274	-108.490372	66.565865	321.743896	-163.176117	62.640816	269.007446	17.069681	45.903755	286.204712	9.043524	670.471497	11.891645	129.894714	487.496674	95.624405	72.354584	300.696655	53.264687	-24.760092	102.778854	148.803040	-63.843819	107.699860	205.029434	105.529816	57.118710	156.953705
237	2.36000000	-60.599880	1326.420898	463.114777	-63.758717	1364.716187	108.255577	-122.801010	1417.425293	284.867584	20.434372	1315.169800	283.572021	-32.149494	1008.139954	522.655518	-140.237732	1050.592285	28.438797	103.989441	798.871063	545.371613	-47.378929	827.702301	-50.743425	38.732826	910.940247	406.734741	37.121284	912.262512	93.160255	-190.546494	944.727234	307.896820	-192.039490	933.288696	198.355896	-191.292992	939.007965	253.126358	-182.424011	1112.755127	261.377686	117.014450	1084.714844	253.153580	2.772021	693.223450	481.434723	-9.784332	462.196777	391.991760	-51.671535	258.744659	426.189209	-108.348335	66.668129	321.630249	-163.046341	62.793762	268.912231	17.120983	45.825607	285.954742	16.369236	670.223877	12.406173	137.720245	488.074860	97.219986	89.683563	299.685028	53.950123	2.459344	96.402382	148.481094	-37.083458	99.429535	204.514694	134.792343	56.669701	157.330414
